<svg width="24" height="15" viewBox="0 0 24 15" fill="none" xmlns="http://www.w3.org/2000/svg">
<path d="M2.0172 7.46032H0V5.07937H2.0172V3.78968C2.0172 3.18122 2.11706 2.6455 2.31679 2.18254C2.51651 1.70635 2.78947 1.30952 3.13565 0.992064C3.48184 0.661376 3.88128 0.416667 4.33399 0.257937C4.80001 0.085979 5.29932 0 5.83191 0C6.21804 0 6.54426 0.0198415 6.81056 0.0595243C7.09017 0.0992063 7.34315 0.152116 7.5695 0.218254V2.61905C7.24995 2.5 6.87713 2.44048 6.45105 2.44048C5.85188 2.44048 5.41915 2.57275 5.15285 2.8373C4.88656 3.08862 4.75341 3.51852 4.75341 4.12698V5.07937H7.5695V7.46032H4.75341V15H2.0172V7.46032ZM10.5454 3.45238C10.3057 3.45238 10.0794 3.40608 9.86632 3.31349C9.66659 3.2209 9.48684 3.10185 9.32707 2.95635C9.16729 2.79762 9.0408 2.61243 8.94759 2.40079C8.85439 2.18915 8.80779 1.96429 8.80779 1.72619C8.80779 1.4881 8.85439 1.26323 8.94759 1.05159C9.0408 0.839947 9.16729 0.661376 9.32707 0.515874C9.48684 0.357143 9.66659 0.231482 9.86632 0.13889C10.0794 0.0462965 10.3057 0 10.5454 0C11.038 0 11.4508 0.171958 11.7837 0.515874C12.1298 0.846561 12.3029 1.25 12.3029 1.72619C12.3029 2.20238 12.1298 2.61243 11.7837 2.95635C11.4508 3.28704 11.038 3.45238 10.5454 3.45238ZM9.18726 5.07937H11.9235V15H9.18726V5.07937Z" fill="black"/>
<path d="M14.5531 5.07937H17.2893V6.21032C17.5556 5.81349 17.9351 5.48942 18.4277 5.2381C18.9204 4.98677 19.4929 4.86111 20.1453 4.86111C20.7445 4.86111 21.2838 4.96693 21.7631 5.17857C22.2424 5.39021 22.6485 5.68783 22.9814 6.07143C23.3143 6.4418 23.5673 6.89153 23.7404 7.42063C23.9135 7.94974 24 8.53836 24 9.18651V15H21.2638V9.64286C21.2638 8.92857 21.1107 8.3664 20.8044 7.95635C20.5115 7.5463 20.0788 7.34127 19.5062 7.34127C18.8671 7.34127 18.3345 7.57275 17.9084 8.03571C17.4957 8.49868 17.2893 9.20635 17.2893 10.1587V15H14.5531V5.07937Z" fill="black"/>
</svg>
