<svg width="97" height="97" viewBox="0 0 97 97" fill="none" xmlns="http://www.w3.org/2000/svg">
<circle cx="48.5" cy="48.418" r="48" fill="#EBF2F5"/>
<g clip-path="url(#clip0)">
<path d="M21.7812 65.3398H75.2188V75.1367H21.7812V65.3398Z" fill="#A1CDFB"/>
<path d="M26.2344 76.0273C23.2873 76.0273 20.8906 73.6307 20.8906 70.6836H22.6719C22.6719 72.6483 24.2697 74.2461 26.2344 74.2461C28.1991 74.2461 29.7969 72.6483 29.7969 70.6836H31.5781C31.5781 73.6307 29.1815 76.0273 26.2344 76.0273Z" fill="black"/>
<path d="M35.1406 76.0273C32.1935 76.0273 29.7969 73.6307 29.7969 70.6836H31.5781C31.5781 72.6483 33.1759 74.2461 35.1406 74.2461C37.1053 74.2461 38.7031 72.6483 38.7031 70.6836H40.4844C40.4844 73.6307 38.0877 76.0273 35.1406 76.0273Z" fill="black"/>
<path d="M44.0469 76.0273C41.0998 76.0273 38.7031 73.6307 38.7031 70.6836H40.4844C40.4844 72.6483 42.0822 74.2461 44.0469 74.2461C46.0116 74.2461 47.6094 72.6483 47.6094 70.6836H49.3906C49.3906 73.6307 46.994 76.0273 44.0469 76.0273Z" fill="black"/>
<path d="M52.9531 76.0273C50.006 76.0273 47.6094 73.6307 47.6094 70.6836H49.3906C49.3906 72.6483 50.9884 74.2461 52.9531 74.2461C54.9178 74.2461 56.5156 72.6483 56.5156 70.6836H58.2969C58.2969 73.6307 55.9002 76.0273 52.9531 76.0273Z" fill="black"/>
<path d="M61.8594 76.0273C58.9123 76.0273 56.5156 73.6307 56.5156 70.6836H58.2969C58.2969 72.6483 59.8947 74.2461 61.8594 74.2461C63.8241 74.2461 65.4219 72.6483 65.4219 70.6836H67.2031C67.2031 73.6307 64.8065 76.0273 61.8594 76.0273Z" fill="black"/>
<path d="M70.7656 76.0273C67.8185 76.0273 65.4219 73.6307 65.4219 70.6836H67.2031C67.2031 72.6483 68.8009 74.2461 70.7656 74.2461C72.7303 74.2461 74.3281 72.6483 74.3281 70.6836H76.1094C76.1094 73.6307 73.7127 76.0273 70.7656 76.0273Z" fill="black"/>
<path d="M26.2344 68.9023C23.2873 68.9023 20.8906 66.5057 20.8906 63.5586H22.6719C22.6719 65.5233 24.2697 67.1211 26.2344 67.1211C28.1991 67.1211 29.7969 65.5233 29.7969 63.5586H31.5781C31.5781 66.5057 29.1815 68.9023 26.2344 68.9023Z" fill="black"/>
<path d="M35.1406 68.9023C32.1935 68.9023 29.7969 66.5057 29.7969 63.5586H31.5781C31.5781 65.5233 33.1759 67.1211 35.1406 67.1211C37.1053 67.1211 38.7031 65.5233 38.7031 63.5586H40.4844C40.4844 66.5057 38.0877 68.9023 35.1406 68.9023Z" fill="black"/>
<path d="M44.0469 68.9023C41.0998 68.9023 38.7031 66.5057 38.7031 63.5586H40.4844C40.4844 65.5233 42.0822 67.1211 44.0469 67.1211C46.0116 67.1211 47.6094 65.5233 47.6094 63.5586H49.3906C49.3906 66.5057 46.994 68.9023 44.0469 68.9023Z" fill="black"/>
<path d="M52.9531 68.9023C50.006 68.9023 47.6094 66.5057 47.6094 63.5586H49.3906C49.3906 65.5233 50.9884 67.1211 52.9531 67.1211C54.9178 67.1211 56.5156 65.5233 56.5156 63.5586H58.2969C58.2969 66.5057 55.9002 68.9023 52.9531 68.9023Z" fill="black"/>
<path d="M61.8594 68.9023C58.9123 68.9023 56.5156 66.5057 56.5156 63.5586H58.2969C58.2969 65.5233 59.8947 67.1211 61.8594 67.1211C63.8241 67.1211 65.4219 65.5233 65.4219 63.5586H67.2031C67.2031 66.5057 64.8065 68.9023 61.8594 68.9023Z" fill="black"/>
<path d="M70.7656 68.9023C67.8185 68.9023 65.4219 66.5057 65.4219 63.5586H67.2031C67.2031 65.5233 68.8009 67.1211 70.7656 67.1211C72.7303 67.1211 74.3281 65.5233 74.3281 63.5586H76.1094C76.1094 66.5057 73.7127 68.9023 70.7656 68.9023Z" fill="black"/>
</g>
<path d="M55.5002 42.188C59.7925 42.188 63.272 38.7085 63.272 34.4163C63.272 30.1241 59.7925 26.6445 55.5002 26.6445C51.208 26.6445 47.7285 30.1241 47.7285 34.4163C47.7285 38.7085 51.208 42.188 55.5002 42.188Z" fill="#FFC107"/>
<path d="M55.4996 25.6087C55.7857 25.6087 56.0177 25.3767 56.0177 25.0906V23.0181C56.0177 22.732 55.7857 22.5 55.4996 22.5C55.2134 22.5 54.9814 22.732 54.9814 23.0181V25.0906C54.9815 25.3767 55.2134 25.6087 55.4996 25.6087Z" fill="#FFD54F"/>
<path d="M55.4996 43.2266C55.2134 43.2266 54.9814 43.4585 54.9814 43.7447V45.8171C54.9814 46.1033 55.2134 46.3353 55.4996 46.3353C55.7857 46.3353 56.0177 46.1033 56.0177 45.8171V43.7446C56.0177 43.4585 55.7857 43.2266 55.4996 43.2266Z" fill="#FFD54F"/>
<path d="M66.8982 33.8984H64.8257C64.5396 33.8984 64.3076 34.1304 64.3076 34.4166C64.3076 34.7027 64.5396 34.9347 64.8257 34.9347H66.8982C67.1844 34.9347 67.4163 34.7027 67.4163 34.4166C67.4163 34.1304 67.1844 33.8984 66.8982 33.8984Z" fill="#FFD54F"/>
<path d="M46.6917 34.4166C46.6917 34.1304 46.4597 33.8984 46.1736 33.8984H44.1011C43.815 33.8985 43.583 34.1304 43.583 34.4166C43.583 34.7027 43.815 34.9347 44.1011 34.9347H46.1736C46.4597 34.9347 46.6917 34.7027 46.6917 34.4166Z" fill="#FFD54F"/>
<path d="M50.3881 26.6003C50.4808 26.7609 50.6524 26.8597 50.8379 26.8593C50.9288 26.8597 51.0183 26.8357 51.0969 26.7899C51.3447 26.6468 51.4296 26.33 51.2865 26.0822L50.2503 24.2874C50.1056 24.0406 49.7882 23.9578 49.5413 24.1025C49.2968 24.2458 49.2128 24.5591 49.353 24.8055L50.3881 26.6003Z" fill="#FFD54F"/>
<path d="M60.6116 42.2327C60.4669 41.9858 60.1495 41.9031 59.9026 42.0478C59.6581 42.1912 59.5742 42.5044 59.7142 42.7508L60.7505 44.5456C60.8432 44.7062 61.0147 44.805 61.2002 44.8046C61.2912 44.8049 61.3806 44.781 61.4592 44.7352C61.7071 44.5921 61.7919 44.2753 61.6489 44.0274L60.6116 42.2327Z" fill="#FFD54F"/>
<path d="M63.5758 30.2704C63.6668 30.2708 63.7563 30.2468 63.8349 30.201L65.6296 29.1648C65.8832 29.0322 65.9812 28.7191 65.8485 28.4656C65.7159 28.212 65.4028 28.114 65.1493 28.2466C65.1363 28.2534 65.1238 28.2607 65.1115 28.2685L63.3167 29.3047C63.0689 29.4478 62.9841 29.7647 63.1271 30.0125C63.2196 30.1728 63.3907 30.2715 63.5758 30.2715V30.2704H63.5758Z" fill="#FFD54F"/>
<path d="M47.1642 38.6307L45.3695 39.6669C45.1217 39.81 45.0368 40.1269 45.1798 40.3747C45.2724 40.535 45.4434 40.6337 45.6285 40.6337C45.7195 40.6341 45.809 40.6101 45.8876 40.5643L47.6823 39.5281C47.9358 39.3954 48.0339 39.0824 47.9012 38.8288C47.7686 38.5753 47.4555 38.4773 47.202 38.6099C47.189 38.6167 47.1765 38.624 47.1642 38.6318L47.1642 38.6307Z" fill="#FFD54F"/>
<path d="M45.3699 29.1658L47.1646 30.202C47.243 30.2476 47.332 30.2716 47.4226 30.2714C47.7088 30.2714 47.9407 30.0395 47.9407 29.7533C47.9407 29.5682 47.842 29.3972 47.6817 29.3046L45.8869 28.2684C45.6454 28.1149 45.3252 28.1862 45.1717 28.4277C45.0183 28.6692 45.0896 28.9894 45.331 29.1429C45.3433 29.1507 45.3559 29.158 45.3688 29.1647L45.3699 29.1658Z" fill="#FFD54F"/>
<path d="M65.6299 39.6679L63.8352 38.6317C63.5937 38.4782 63.2735 38.5495 63.12 38.791C62.9665 39.0324 63.0378 39.3527 63.2793 39.5062C63.2915 39.514 63.3042 39.5213 63.3171 39.528L65.1118 40.5642C65.1904 40.61 65.2799 40.634 65.3708 40.6336C65.657 40.6336 65.8889 40.4017 65.8889 40.1155C65.8889 39.9304 65.7902 39.7594 65.6299 39.6668V39.6679H65.6299Z" fill="#FFD54F"/>
<path d="M59.9039 26.7898C59.9825 26.8356 60.0719 26.8596 60.1629 26.8592C60.3484 26.8596 60.5199 26.7608 60.6127 26.6002L61.6489 24.8055C61.7903 24.5567 61.7032 24.2404 61.4545 24.099C61.2081 23.959 60.8949 24.0429 60.7515 24.2874L59.7153 26.0821C59.572 26.3296 59.6564 26.6464 59.9039 26.7898Z" fill="#FFD54F"/>
<path d="M51.0957 42.0461C50.8479 41.903 50.531 41.9879 50.3879 42.2357L49.3517 44.0304C49.2087 44.2783 49.2935 44.5951 49.5414 44.7382C49.62 44.784 49.7094 44.808 49.8004 44.8076C49.9858 44.808 50.1574 44.7092 50.2501 44.5486L51.2864 42.7538C51.4292 42.5059 51.344 42.1891 51.096 42.0463C51.0959 42.0462 51.0958 42.0461 51.0957 42.0461Z" fill="#FFD54F"/>
<path d="M55.5002 42.288H55.5004C59.8458 42.2834 63.3674 38.7619 63.372 34.4164V34.4163C63.372 30.0688 59.8477 26.5445 55.5002 26.5445C51.1528 26.5445 47.6285 30.0688 47.6285 34.4163C47.6285 38.7637 51.1528 42.288 55.5002 42.288ZM48.8647 34.4163C48.8647 30.7516 51.8356 27.7808 55.5002 27.7808C59.1631 27.7853 62.1313 30.7536 62.1358 34.4164C62.1357 38.081 59.1649 41.0518 55.5002 41.0518C51.8356 41.0518 48.8647 38.081 48.8647 34.4163Z" fill="black" stroke="black" stroke-width="0.2"/>
<path d="M54.8814 23.0181V23.0181V25.0906C54.8814 25.4319 55.1582 25.7087 55.4996 25.7087C55.8409 25.7087 56.1177 25.4319 56.1177 25.0906V23.0181C56.1177 22.6768 55.8409 22.4 55.4996 22.4C55.1582 22.4 54.8815 22.6768 54.8814 23.0181Z" fill="black" stroke="black" stroke-width="0.2"/>
<path d="M54.8814 45.8172C54.8814 46.1585 55.1582 46.4353 55.4996 46.4353C55.8409 46.4353 56.1177 46.1585 56.1177 45.8172V43.7447C56.1177 43.4033 55.8409 43.1266 55.4996 43.1266C55.1582 43.1266 54.8814 43.4033 54.8814 43.7447V45.8172Z" fill="black" stroke="black" stroke-width="0.2"/>
<path d="M64.8257 35.0347H66.8982C67.2396 35.0347 67.5163 34.7579 67.5163 34.4166C67.5163 34.0752 67.2396 33.7984 66.8982 33.7984H64.8257C64.4844 33.7984 64.2076 34.0752 64.2076 34.4166C64.2076 34.7579 64.4844 35.0347 64.8257 35.0347Z" fill="black" stroke="black" stroke-width="0.2"/>
<path d="M46.7917 34.4166V34.4166C46.7917 34.0752 46.515 33.7984 46.1736 33.7984H44.1011C43.7598 33.7984 43.483 34.0752 43.483 34.4166C43.483 34.7579 43.7598 35.0347 44.1011 35.0347H46.1736C46.5149 35.0347 46.7917 34.7579 46.7917 34.4166Z" fill="black" stroke="black" stroke-width="0.2"/>
<path d="M49.2634 24.8516L49.2635 24.8516C49.1052 24.5491 49.2222 24.1756 49.5247 24.0174L49.5247 24.0173C49.8093 23.8685 50.1605 23.9624 50.3328 24.2334L50.3351 24.237L50.335 24.2371L51.3713 26.0318C51.3713 26.0318 51.3713 26.0318 51.3713 26.0318C51.542 26.3275 51.4407 26.7055 51.145 26.8762C51.0514 26.9303 50.9451 26.9588 50.837 26.959L49.2634 24.8516ZM49.2634 24.8516L49.2655 24.8552M49.2634 24.8516L49.2655 24.8552M49.2655 24.8552L50.3017 26.65M49.2655 24.8552L50.3017 26.65M50.3017 26.65C50.4119 26.8409 50.6155 26.9586 50.836 26.959L50.3017 26.65Z" fill="black" stroke="black" stroke-width="0.2"/>
<path d="M60.6643 44.5979C60.6643 44.5979 60.6643 44.5979 60.6643 44.5979L59.6291 42.8049C59.4476 42.517 59.5329 42.1363 59.8203 41.9536C60.1084 41.7705 60.4904 41.8555 60.6736 42.1435C60.6825 42.1577 60.6909 42.1721 60.6986 42.1867L61.7339 43.9798C61.7339 43.9798 61.7339 43.9798 61.7339 43.9798C61.9046 44.2754 61.8033 44.6534 61.5076 44.8241C61.414 44.8782 61.3077 44.9068 61.1996 44.9069L60.6643 44.5979ZM60.6643 44.5979C60.7746 44.7888 60.9781 44.9066 61.1986 44.9069L60.6643 44.5979Z" fill="black" stroke="black" stroke-width="0.2"/>
<path d="M63.577 30.3714L63.5767 30.3714C63.2353 30.3714 62.9586 30.0947 62.9586 29.7533C62.9586 29.5325 63.0764 29.3285 63.2676 29.218L63.2676 29.218L65.0606 28.1828C65.3485 28.0013 65.7292 28.0866 65.912 28.3741C66.0951 28.6621 66.01 29.0441 65.722 29.2273L63.577 30.3714ZM63.577 30.3714C63.6856 30.371 63.7921 30.3421 63.8859 30.2875C63.886 30.2874 63.886 30.2874 63.8861 30.2874L65.6788 29.2523M63.577 30.3714L65.6788 29.2523M65.6788 29.2523C65.6934 29.2446 65.7078 29.2363 65.7219 29.2273L65.6788 29.2523Z" fill="black" stroke="black" stroke-width="0.2"/>
<path d="M45.6284 40.7364L45.6288 40.7364C45.7373 40.736 45.8439 40.707 45.9377 40.6524C45.9378 40.6524 45.9378 40.6523 45.9379 40.6523L47.7323 39.6163L47.7323 39.6164L47.7359 39.6141C48.007 39.4417 48.1009 39.0905 47.952 38.8059L47.952 38.8059C47.7937 38.5034 47.4203 38.3865 47.1178 38.5448L47.1177 38.5447L47.1141 38.5468L45.3194 39.583C45.3194 39.583 45.3194 39.583 45.3194 39.583C45.1282 39.6934 45.0104 39.8974 45.0104 40.1182C45.0104 40.4596 45.287 40.7364 45.6284 40.7364Z" fill="black" stroke="black" stroke-width="0.2"/>
<path d="M47.4242 30.372L47.4239 30.372C47.3154 30.372 47.2088 30.3434 47.1148 30.2892C47.1148 30.2892 47.1148 30.2892 47.1148 30.2892L45.3201 29.253L45.3164 29.2508L45.3165 29.2508C45.0283 29.0676 44.9433 28.6856 45.1265 28.3975L47.4242 30.372ZM47.4242 30.372C47.6434 30.3712 47.8458 30.2545 47.9562 30.0652L47.9562 30.0651C48.1281 29.7702 48.0283 29.3917 47.7333 29.2199L47.733 29.2197L45.9382 28.1834L45.9383 28.1834M47.4242 30.372L45.9383 28.1834M45.9383 28.1834L45.9346 28.1814M45.9383 28.1834L45.9346 28.1814M45.9346 28.1814C45.65 28.0325 45.2988 28.1265 45.1265 28.3975L45.9346 28.1814Z" fill="black" stroke="black" stroke-width="0.2"/>
<path d="M65.68 39.5814L65.68 39.5814C65.9757 39.7521 66.0769 40.1301 65.9062 40.4258L65.9062 40.4258C65.7958 40.617 65.5918 40.7348 65.371 40.7348H65.271V40.7256C65.1976 40.7136 65.1267 40.6884 65.0619 40.6509L63.2688 39.6157C62.9678 39.4569 62.8517 39.0843 63.0096 38.7825C63.1678 38.48 63.5413 38.3631 63.8438 38.5213L65.68 39.5814ZM65.68 39.5814L63.887 38.5462M65.68 39.5814L63.887 38.5462M63.887 38.5462C63.873 38.5374 63.8586 38.5291 63.8438 38.5213L63.887 38.5462Z" fill="black" stroke="black" stroke-width="0.2"/>
<path d="M60.6657 24.2334L60.6658 24.2335C60.8489 23.9453 61.2309 23.8603 61.519 24.0434L60.6657 24.2334ZM60.6657 24.2334L60.6636 24.2371M60.6657 24.2334L60.6636 24.2371M60.6636 24.2371L59.6273 26.0318C59.6273 26.0318 59.6273 26.0318 59.6273 26.0318M60.6636 24.2371L59.6273 26.0318M61.7332 24.8553L61.7331 24.8552L60.6969 26.65L60.6969 26.65L60.6103 26.6L61.7332 24.8553ZM61.7332 24.8553L61.7351 24.8516M61.7332 24.8553L61.7351 24.8516M61.7351 24.8516C61.8839 24.567 61.7901 24.2158 61.519 24.0434L61.7351 24.8516ZM59.6273 26.0318C59.5731 26.1258 59.5445 26.2324 59.5445 26.3409L59.6273 26.0318ZM60.1626 26.959L60.1628 26.959L59.5445 26.3409C59.5445 26.6823 59.8212 26.959 60.1626 26.959Z" fill="black" stroke="black" stroke-width="0.2"/>
<path d="M49.8005 44.907L49.8003 44.907C49.4589 44.907 49.1822 44.6303 49.1822 44.2889L49.8005 44.907ZM49.8005 44.907C50.0209 44.9066 50.2244 44.7888 50.3346 44.598L50.3346 44.598M49.8005 44.907L50.3346 44.598M50.3346 44.598L51.3697 42.805M50.3346 44.598L51.2842 42.7532M49.265 43.9798C49.265 43.9798 49.265 43.9798 49.265 43.9798L50.3003 42.1868C50.4591 41.8858 50.8316 41.7696 51.1335 41.9276C51.436 42.0858 51.5529 42.4593 51.3946 42.7618M49.265 43.9798L49.3516 44.0298L50.3879 42.2351C50.5205 41.9815 50.8336 41.8835 51.0871 42.0162C51.3407 42.1488 51.4387 42.4619 51.306 42.7154C51.2993 42.7284 51.292 42.7409 51.2842 42.7532M49.265 43.9798C49.2108 44.0738 49.1822 44.1804 49.1822 44.2889L49.265 43.9798ZM51.3946 42.7618L51.3061 42.7155L51.3947 42.7617C51.3947 42.7618 51.3946 42.7618 51.3946 42.7618ZM51.3946 42.7618C51.3869 42.7766 51.3786 42.791 51.3697 42.805M51.3697 42.805L51.3708 42.8032L51.2842 42.7532M51.3697 42.805C51.3693 42.8056 51.3689 42.8063 51.3685 42.8069L51.2842 42.7532" fill="black" stroke="black" stroke-width="0.2"/>
<defs>
<clipPath id="clip0">
<rect width="57" height="57" fill="white" transform="translate(20 19.918)"/>
</clipPath>
</defs>
</svg>
